<?xml version="1.0" encoding="UTF-8"?>
<svg id="Ebene_1" data-name="Ebene 1" xmlns="http://www.w3.org/2000/svg" viewBox="0 0 321.21 54.38">
  <defs>
    <style>
      .cls-1 {
        fill: #3f3f46;
      }

      .cls-2 {
        fill: #16a34a;
      }
    </style>
  </defs>
  <path class="cls-2" d="m0,3.2V0h22.4v3.2l-10.4,1.2h-1.6L0,3.2Zm12,46l10.4,1.2v3.2H0v-3.2l10.4-1.2h1.6Zm-4.4-24.4c0-8.24,0-16.56-.24-24.8h7.44c-.24,8.08-.24,16.4-.24,24.8v6.08c0,6.16,0,14.48.24,22.72h-7.44c.24-8.08.24-16.4.24-24.8v-4Zm3.44,9.44L39.04,0h4.8L11.04,39.44v-5.2Zm14.8-15.44l19.36,34.8h-7.52l-16-29.84,4.16-4.96Zm2.96,31.6l9.6-1.2h1.2l9.6,1.2v3.2h-20.4v-3.2Zm.88-47.2V0h18.4v3.2l-8.8,1.2-1.6.4-8-1.6Z"/>
  <path class="cls-1" d="m50.78,3.19h6.25v50.41h-6.25V3.19Z"/>
  <path class="cls-1" d="m70.95,9.58c.07,2.13-1.49,3.83-3.98,3.83-2.2,0-3.76-1.7-3.76-3.83s1.63-3.9,3.91-3.9,3.83,1.7,3.83,3.9Zm-6.96,44.02V19.24h6.25v34.36h-6.25Z"/>
  <path class="cls-1" d="m77.05,28.54c0-3.55-.07-6.46-.28-9.3h5.47l.28,5.54h.21c1.92-3.27,5.11-6.32,10.79-6.32,4.69,0,8.24,2.84,9.73,6.89h.14c1.07-1.92,2.41-3.41,3.83-4.47,2.06-1.56,4.33-2.41,7.6-2.41,4.54,0,11.29,2.98,11.29,14.91v20.23h-6.11v-19.45c0-6.6-2.41-10.58-7.46-10.58-3.55,0-6.32,2.63-7.38,5.68-.28.85-.5,1.99-.5,3.12v21.23h-6.11v-20.59c0-5.47-2.41-9.44-7.17-9.44-3.91,0-6.75,3.12-7.74,6.25-.36.92-.5,1.99-.5,3.05v20.73h-6.11v-25.06Z"/>
  <path class="cls-1" d="m151.74,53.6l-.5-4.33h-.21c-1.92,2.7-5.61,5.11-10.51,5.11-6.96,0-10.51-4.9-10.51-9.87,0-8.31,7.38-12.85,20.66-12.78v-.71c0-2.84-.78-7.95-7.81-7.95-3.2,0-6.53.99-8.95,2.56l-1.42-4.12c2.84-1.85,6.96-3.05,11.29-3.05,10.51,0,13.06,7.17,13.06,14.06v12.85c0,2.98.14,5.89.57,8.24h-5.68Zm-.92-17.54c-6.82-.14-14.55,1.06-14.55,7.74,0,4.05,2.7,5.96,5.89,5.96,4.47,0,7.31-2.84,8.31-5.75.21-.64.36-1.35.36-1.99v-5.96Z"/>
  <path class="cls-2" d="m166.25,4.4l-10.4-1.2V0h21.6v3.6l-9.6.8h-1.6Zm-5.68-4.4h7.68l16,45.44h-1.68L197.94,0h4.32l-18.32,54.16h-3.2L160.57,0Zm36.8,4.4l-8-.8V0h18.48v3.2l-8.88,1.2h-1.6Z"/>
  <path class="cls-1" d="m212.79,9.58c.07,2.13-1.49,3.83-3.98,3.83-2.2,0-3.76-1.7-3.76-3.83s1.63-3.9,3.9-3.9,3.83,1.7,3.83,3.9Zm-6.96,44.02V19.24h6.25v34.36h-6.25Z"/>
  <path class="cls-1" d="m218.05,47.21c1.85,1.21,5.11,2.49,8.24,2.49,4.54,0,6.67-2.27,6.67-5.11,0-2.98-1.78-4.62-6.39-6.32-6.18-2.2-9.09-5.61-9.09-9.73,0-5.54,4.47-10.08,11.86-10.08,3.48,0,6.53.99,8.45,2.13l-1.56,4.54c-1.35-.85-3.83-1.99-7.03-1.99-3.69,0-5.75,2.13-5.75,4.69,0,2.84,2.06,4.12,6.53,5.82,5.96,2.27,9.02,5.25,9.02,10.37,0,6.04-4.69,10.29-12.85,10.29-3.76,0-7.24-.92-9.66-2.34l1.56-4.76Z"/>
  <path class="cls-1" d="m250.42,9.58c.07,2.13-1.49,3.83-3.98,3.83-2.2,0-3.76-1.7-3.76-3.83s1.63-3.9,3.9-3.9,3.83,1.7,3.83,3.9Zm-6.96,44.02V19.24h6.25v34.36h-6.25Z"/>
  <path class="cls-1" d="m287.63,36.13c0,12.71-8.8,18.25-17.11,18.25-9.3,0-16.47-6.82-16.47-17.68,0-11.5,7.53-18.25,17.04-18.25s16.54,7.17,16.54,17.68Zm-27.26.36c0,7.53,4.33,13.21,10.44,13.21s10.44-5.61,10.44-13.35c0-5.82-2.91-13.21-10.29-13.21s-10.58,6.82-10.58,13.35Z"/>
  <path class="cls-1" d="m291.96,28.54c0-3.55-.07-6.46-.28-9.3h5.54l.36,5.68h.14c1.7-3.27,5.68-6.46,11.36-6.46,4.76,0,12.14,2.84,12.14,14.63v20.52h-6.25v-19.81c0-5.54-2.06-10.15-7.95-10.15-4.12,0-7.31,2.91-8.38,6.39-.28.78-.43,1.85-.43,2.91v20.66h-6.25v-25.06Z"/>
</svg>