<?xml version="1.0" encoding="UTF-8"?>
<svg id="Ebene_1" data-name="Ebene 1" xmlns="http://www.w3.org/2000/svg" viewBox="0 0 209 234">
  <defs>
    <style>
      .cls-1 {
        fill: #534741;
      }

      .cls-2 {
        fill: #0071bc;
      }

      .cls-3 {
        fill: #f2f2f2;
      }
    </style>
  </defs>
  <g>
    <circle class="cls-1" cx="53.5" cy="77.5" r="53"/>
    <path d="m53.5,25c28.95,0,52.5,23.55,52.5,52.5s-23.55,52.5-52.5,52.5S1,106.45,1,77.5,24.55,25,53.5,25m0-1C23.95,24,0,47.95,0,77.5s23.95,53.5,53.5,53.5,53.5-23.95,53.5-53.5-23.95-53.5-53.5-53.5h0Z"/>
  </g>
  <g>
    <circle class="cls-2" cx="148" cy="61" r="60.5"/>
    <path d="m148,1c33.08,0,60,26.92,60,60s-26.92,60-60,60-60-26.92-60-60S114.92,1,148,1m0-1c-33.69,0-61,27.31-61,61s27.31,61,61,61,61-27.31,61-61S181.69,0,148,0h0Z"/>
  </g>
  <g>
    <circle class="cls-2" cx="104.5" cy="168.5" r="65"/>
    <path d="m104.5,104c35.57,0,64.5,28.93,64.5,64.5s-28.93,64.5-64.5,64.5-64.5-28.93-64.5-64.5,28.93-64.5,64.5-64.5m0-1c-36.17,0-65.5,29.33-65.5,65.5s29.33,65.5,65.5,65.5,65.5-29.33,65.5-65.5-29.33-65.5-65.5-65.5h0Z"/>
  </g>
  <g>
    <path class="cls-3" d="m70.07,93.26v-.92h6.44v.92l-2.99.34h-.46l-2.99-.34Zm3.22,13.22v1.26h-3.22v-.92l2.99-.34h.23Zm-1.1-14.14h2.21c-.07,2.37-.07,4.76-.07,7.13v1.61c0,1.95,0,4.35.07,6.67h-2.21c.07-2.37.07-4.76.07-7.13v-1.15c0-2.41,0-4.81-.07-7.13Zm9.54,11.08l-.23,4.32h-8.21v-1.15h7.4l-1.26,1.15.92-4.32h1.38Z"/>
    <path class="cls-3" d="m97.46,100.05c0,5.04-3.45,8.05-7.01,8.05s-7.04-2.8-7.04-8.05,3.5-8.05,7.04-8.05,7.01,2.8,7.01,8.05Zm-7.01,6.9c3.24,0,4.6-3.45,4.6-6.9s-1.36-6.9-4.6-6.9-4.62,3.45-4.62,6.9,1.38,6.9,4.62,6.9Z"/>
    <path class="cls-3" d="m112.68,106.74c-1.59.83-3.15,1.36-5.06,1.36-4.6,0-7.73-3.43-7.73-8.05s3.15-8.05,7.82-8.05c1.91,0,3.33.34,4.62,1.1l.09,3.33h-1.4l-.57-3.4,1.42.46v1.31c-1.24-1.15-2.51-1.66-3.98-1.66-3.22,0-5.59,2.51-5.59,6.9s2.16,6.88,5.75,6.88c1.31,0,2.28-.3,3.59-.94l-1.04,1.08v-1.33c0-1.75-.02-3.54-.07-5.29h2.21c-.05,1.72-.07,3.5-.07,5.29v1.01Zm-4.53-5.38v-.92h5.98v.92l-2.53.23h-.46l-2.99-.23Z"/>
    <path class="cls-3" d="m129.86,100.05c0,5.04-3.45,8.05-7.01,8.05s-7.04-2.8-7.04-8.05,3.5-8.05,7.04-8.05,7.01,2.8,7.01,8.05Zm-7.01,6.9c3.24,0,4.6-3.45,4.6-6.9s-1.36-6.9-4.6-6.9-4.62,3.45-4.62,6.9,1.38,6.9,4.62,6.9Z"/>
  </g>
</svg>